<?xml version="1.0" encoding="UTF-8" standalone="no"?>
<svg
   viewBox="0 0 90 90"
   version="1.1"
   id="svg5"
   sodipodi:docname="logo-white.svg"
   inkscape:export-filename="logo1.svg"
   inkscape:export-xdpi="96"
   inkscape:export-ydpi="96"
   inkscape:version="1.3.2 (091e20e, 2023-11-25, custom)"
   xmlns:inkscape="http://www.inkscape.org/namespaces/inkscape"
   xmlns:sodipodi="http://sodipodi.sourceforge.net/DTD/sodipodi-0.dtd"
   xmlns="http://www.w3.org/2000/svg"
   xmlns:svg="http://www.w3.org/2000/svg">
  <sodipodi:namedview
     id="namedview5"
     pagecolor="#ffffff"
     bordercolor="#000000"
     borderopacity="0.25"
     inkscape:showpageshadow="2"
     inkscape:pageopacity="0.0"
     inkscape:pagecheckerboard="0"
     inkscape:deskcolor="#d1d1d1"
     inkscape:zoom="8.6333333"
     inkscape:cx="27.220077"
     inkscape:cy="46.389962"
     inkscape:window-width="1920"
     inkscape:window-height="991"
     inkscape:window-x="2391"
     inkscape:window-y="-9"
     inkscape:window-maximized="1"
     inkscape:current-layer="g5" />
  <defs
     id="defs2">
    <inkscape:path-effect
       effect="bspline"
       id="path-effect11"
       is_visible="true"
       lpeversion="1.3"
       weight="33.333333"
       steps="2"
       helper_size="0"
       apply_no_weight="true"
       apply_with_weight="true"
       only_selected="false"
       uniform="false" />
    <inkscape:path-effect
       effect="bspline"
       id="path-effect9"
       is_visible="true"
       lpeversion="1.3"
       weight="33.333333"
       steps="2"
       helper_size="0"
       apply_no_weight="true"
       apply_with_weight="true"
       only_selected="false"
       uniform="false" />
    <inkscape:path-effect
       effect="bspline"
       id="path-effect8"
       is_visible="true"
       lpeversion="1.3"
       weight="33.333333"
       steps="2"
       helper_size="0"
       apply_no_weight="true"
       apply_with_weight="true"
       only_selected="false"
       uniform="false" />
    <linearGradient
       x1="50.006%"
       y1="-.009%"
       x2="50.006%"
       y2="100.17%"
       id="a">
      <stop
         stop-color="#1466AC"
         offset="40%"
         id="stop1" />
      <stop
         stop-color="#EF4058"
         offset="66%"
         id="stop2" />
    </linearGradient>
  </defs>
  <g
     fill="none"
     fill-rule="evenodd"
     id="g5">
    <path
       d="M72.872 45.829h-2.72a.183.183 0 0 0-.17.17v8.63c-.594.17-1.19.255-1.869.255-1.785 0-2.21-.552-2.21-2.933v-5.952a.183.183 0 0 0-.17-.17h-2.718a.183.183 0 0 0-.17.17v6.25c0 3.91 1.317 5.399 4.673 5.399 1.912 0 4.079-.51 5.354-.978.042-.043.084-.085.084-.128V46c.085-.085 0-.17-.084-.17Zm-57.613.043h-2.762c-.085 0-.127.042-.127.127-.425 1.7-1.317 4.591-2.507 7.61l-2.761-7.652c-.043-.043-.085-.085-.128-.085H4.17c-.043 0-.085.042-.128.085-.042.042-.042.085 0 .127l4.164 11.394a36.97 36.97 0 0 1-1.19 2.295c-.297.51-.552 1.02-.807 1.573-.042.043-.042.085 0 .128.043.042.085.085.128.085h3.016c.043 0 .128-.043.128-.085a55.123 55.123 0 0 0 1.742-3.741c1.784-4.167 3.186-8.078 4.249-11.649 0-.042 0-.085-.043-.127-.085-.085-.127-.085-.17-.085Zm9.9 8.757a.091.091 0 0 0-.085-.085h-.128c-.68.255-1.912.425-2.762.425-1.911 0-2.804-.51-2.804-3.4 0-2.339.298-3.402 2.804-3.402.723 0 1.36.085 2.21.34.085 0 .127 0 .17-.085l1.104-2.21v-.128a.091.091 0 0 0-.085-.085 12.812 12.812 0 0 0-3.611-.553c-3.951 0-5.736 1.871-5.736 6.08 0 4.251 1.785 6.164 5.736 6.164.977 0 2.974-.212 3.909-.595.085-.043.127-.128.085-.213l-.807-2.253Zm25.874-8.757h-2.761c-.085 0-.128.042-.128.127-.425 1.743-1.317 4.591-2.507 7.61l-2.761-7.652c-.043-.043-.085-.085-.128-.085h-2.804c-.042 0-.085.042-.127.085-.043.042-.043.085 0 .127l4.163 11.394a36.97 36.97 0 0 1-1.19 2.295c-.297.51-.552 1.02-.807 1.573-.042.043-.042.085 0 .128.043.042.085.085.128.085h3.016c.043 0 .128-.043.128-.085a55.123 55.123 0 0 0 1.742-3.741c1.742-4.167 3.186-8.078 4.249-11.649 0-.042 0-.085-.043-.127-.085-.085-.127-.085-.17-.085Zm10.197-.043H53.2a.183.183 0 0 0-.17.17V57.18c0 .085.085.17.17.17h2.72c.084 0 .17-.085.17-.17v-8.673h4.205c.043 0 .128-.042.128-.085.34-.765.637-1.573.977-2.38v-.128c-.085-.042-.127-.085-.17-.085Z"
       fill="#EF3E58"
       fill-rule="nonzero"
       id="path2"
       style="fill:#ffffff;fill-opacity:1" />
    <path
       d="M81.575 56.16v-.17c0-.085 0-.213.043-.298.127-1.573.212-3.486.297-5.697v-.17L82 45.064c0-1.658-.042-3.274-.085-4.762v-.17l-.297-5.696c0-.086 0-.213-.043-.298v-.17c0-.17-.042-.298-.042-.468v-.17c-.128-1.658-.213-2.678-.255-2.763 0-.17-.043-.34-.043-.468v-.127a6.023 6.023 0 0 0-.17-.85c0-.043 0-.086-.042-.128-.722-3.444-2.634-7.227-5.014-10.076-.934-1.105-1.912-2.083-2.931-2.848a135.271 135.271 0 0 0-11.94-7.865c-6.245-3.699-11.853-6.25-12.575-6.59-.043 0-.043-.042-.043-.042C46.863.85 44.866.34 42.7.128c-.425-.043-.85-.085-1.275-.085-.383 0-.765-.043-1.147-.043h-.595c-2.932.043-5.608.595-7.733 1.573-.34.128-5.99 2.72-12.406 6.462l-.255.127A154.73 154.73 0 0 0 7.35 16.07c-1.614 1.19-3.059 2.72-4.376 4.676-.297.468-.297 1.573.977 1.573h3.272c1.402 0 1.742-.85 3.314-1.998 1.742-1.275 5.183-3.826 11.471-7.567 4.546-2.678 8.795-4.762 10.834-5.74.043 0 .085-.042.128-.042 0 0 .042 0 .042-.042 0 0 .043 0 .043-.043.042 0 .085-.042.085-.042.042 0 .085-.043.127-.043.51-.255.85-.383.85-.383 1.445-.637 3.484-1.062 5.65-1.105h.85c.638 0 1.275.043 1.87.128 1.317.17 2.507.425 3.484.85.085.042.212.085.297.127a143.63 143.63 0 0 1 12.152 6.377 137.128 137.128 0 0 1 11.471 7.568c.807.595 1.615 1.445 2.38 2.38 1.911 2.466 3.483 5.825 3.738 8.418 0 .043.128 1.063.255 2.806 0 .127 0 .212.043.34v.255c0 .17.042.298.042.468v.17c0 .085 0 .212.043.297 0 .213.042.425.042.638 0 .128 0 .255.043.383v.085c0 .17 0 .297.042.467v.34c.287 5.07.287 10.15 0 15.22v.34c0 .17 0 .298-.042.468v.085c0 .127 0 .255-.043.382 0 .213-.042.426-.042.638 0 .128 0 .213-.043.298v.17c0 .17-.042.297-.042.467v.256c0 .127 0 .255-.043.34-.127 1.743-.255 2.805-.255 2.805-.255 2.594-1.827 5.952-3.739 8.418-.764.978-1.572 1.786-2.379 2.38-.042 0-1.147.851-2.974 2.126a136.965 136.965 0 0 1-20.479 11.734l-.17.085c-.085.043-.212.085-.297.128-.977.382-2.167.68-3.484.85-.595.085-1.232.127-1.87.127h-.85c-2.166-.042-4.205-.425-5.65-1.105 0 0-.297-.127-.85-.383-.042-.042-.127-.042-.17-.085-.042-.042-.085-.042-.127-.085-.043 0-.043-.042-.085-.042-.043 0-.085-.043-.127-.043-.043-.042-.085-.042-.17-.085h-.043a138.21 138.21 0 0 1-10.58-5.611c-6.33-3.699-9.729-6.292-11.47-7.568-1.573-1.148-1.913-1.998-3.315-1.998H3.951c-1.274 0-1.274 1.106-.977 1.53C4.291 71.21 5.736 72.74 7.35 73.93c.213.17 5.396 3.996 11.94 7.865.339.213.679.425 1.061.595 6.076 3.486 11.302 5.867 11.6 6.037 2.081.935 4.8 1.488 7.69 1.573h.594c.383 0 .765 0 1.147-.043.425 0 .85-.042 1.275-.085 2.167-.212 4.206-.722 5.82-1.445 0 0 .043 0 .043-.042.722-.34 6.33-2.934 12.576-6.59a156.319 156.319 0 0 0 8.795-5.612l3.144-2.253c1.02-.765 1.997-1.743 2.932-2.848 2.38-2.849 4.291-6.632 5.013-10.076 0-.042 0-.085.043-.127.042-.298.127-.596.17-.85V59.9c.042-.17.042-.34.042-.468 0-.085.128-1.105.255-2.763v-.17c.085-.043.085-.213.085-.34"
       fill="url(#a)"
       transform="translate(4)"
       id="path4"
       style="stroke:none;stroke-opacity:1;paint-order:stroke markers fill;stroke-width:2.6;stroke-dasharray:none;fill:#ffffff;fill-opacity:1"
       inkscape:label="path4" />
    <path
       d="M37.65 45.829h-8.328c-.085 0-.127.043-.17.128-.212 3.783-.934 7.822-1.954 11.138 0 .042 0 .085.042.127.043.043.085.043.128.043h2.847c.084 0 .127-.043.127-.085.807-2.55 1.445-5.867 1.7-8.673h2.719v8.63c0 .085.085.17.17.17h2.719c.085 0 .17-.085.17-.17v-11.18c0-.043-.085-.128-.17-.128Z"
       fill="#EF3E58"
       fill-rule="nonzero"
       id="path5"
       style="fill:#ffffff;fill-opacity:1" />
    <path
       style="font-weight:bold;font-size:22.6667px;font-family:Lato;-inkscape-font-specification:'Lato Bold';fill:#ffffff;stroke-width:2;fill-opacity:1"
       d="m 10.994105,29.765023 c 0.136001,-0.219112 0.321112,-0.396668 0.555335,-0.532668 0.234222,-0.136 0.483556,-0.204 0.748001,-0.204 h 2.19867 l -2.708671,4.318006 c -0.188889,0.302223 -0.381556,0.547779 -0.578001,0.736668 -0.196445,0.181333 -0.434445,0.324889 -0.714001,0.430667 0.377779,0.113334 0.687557,0.283334 0.929335,0.510001 0.241778,0.219111 0.460889,0.498667 0.657334,0.838668 l 2.720004,4.794007 h -1.938003 c -0.491112,0 -0.872668,-0.08311 -1.144668,-0.249334 -0.272001,-0.166222 -0.502446,-0.404222 -0.691335,-0.714001 L 9.3167696,36.474366 C 9.1656583,36.19481 8.9692135,35.987032 8.7274354,35.851032 8.4932128,35.715031 8.2174346,35.647031 7.9001008,35.647031 H 6.8460992 v 5.009341 H 4.0467617 V 29.028355 h 2.7993375 v 4.794007 h 0.906668 c 0.3173339,0 0.5704454,-0.05667 0.7593345,-0.17 0.1964447,-0.120889 0.3626672,-0.302223 0.4986674,-0.544001 z m 9.204311,14.0222 c -0.08311,0.196444 -0.170949,0.401693 -0.306949,0.499915 -0.128445,0.105778 -0.328667,0.158667 -0.600668,0.158667 h -2.126288 l 2.578924,-4.650768 -4.70334,-10.766682 h 2.459337 c 0.219111,0 0.389111,0.05289 0.51,0.158667 0.128445,0.105778 0.222889,0.226667 0.283334,0.362667 l 2.47067,6.029342 c 0.151111,0.415556 0.275778,0.827334 0.374001,1.235335 0.06045,-0.211555 0.124669,-0.419333 0.192667,-0.623334 0.07556,-0.211556 0.154889,-0.419334 0.238,-0.623334 l 2.33467,-6.018009 c 0.06045,-0.151111 0.158669,-0.275778 0.294668,-0.374001 0.143555,-0.09822 0.302222,-0.147333 0.476,-0.147333 h 2.244004 z M 36.278778,31.487692 c -0.08311,0.105778 -0.166222,0.188889 -0.249333,0.249333 -0.07556,0.06045 -0.18889,0.09067 -0.340001,0.09067 -0.143555,0 -0.283333,-0.04156 -0.419334,-0.124667 -0.136,-0.09067 -0.298445,-0.188889 -0.487334,-0.294667 -0.188889,-0.113333 -0.415556,-0.211556 -0.680001,-0.294667 -0.256889,-0.09067 -0.578001,-0.136 -0.963335,-0.136 -0.491111,0 -0.921779,0.09067 -1.292002,0.272 -0.370223,0.173778 -0.680001,0.42689 -0.929334,0.759335 -0.241778,0.332445 -0.423112,0.736667 -0.544001,1.212668 -0.120889,0.468445 -0.181334,1.001113 -0.181334,1.598003 0,0.619556 0.06422,1.171112 0.192667,1.654669 0.136001,0.483556 0.328668,0.891557 0.578001,1.224002 0.249334,0.324889 0.551557,0.574223 0.906668,0.748001 0.355112,0.166222 0.697642,0.227615 1.14342,0.227615 0.445779,0 0.804668,-0.05289 1.076669,-0.158666 0.279555,-0.113334 0.513778,-0.234223 0.702667,-0.362668 0.188889,-0.136 0.351334,-0.256889 0.487334,-0.362667 0.143556,-0.113333 0.303109,-0.187531 0.476001,-0.17 0.356976,0.0362 0.454583,0.108607 0.567916,0.282385 l 0.804668,1.020001 c -0.309779,0.362667 -0.646002,0.668668 -1.008669,0.918002 -0.362667,0.241778 -0.740445,0.438223 -1.133335,0.589334 -0.385333,0.143556 -0.843693,0.223838 -1.25925,0.284283 -0.408001,0.06045 -0.758086,0.112388 -1.166086,0.112388 -0.717779,0 -1.394003,-0.132222 -2.02867,-0.396667 -0.634668,-0.272001 -1.190002,-0.66489 -1.666003,-1.178668 -0.476001,-0.513779 -0.853779,-1.140891 -1.133335,-1.881336 -0.272,-0.748001 -0.408,-1.598003 -0.408,-2.550004 0,-0.853779 0.120889,-1.643336 0.362667,-2.36867 0.249333,-0.73289 0.612001,-1.36378 1.088002,-1.89267 0.476001,-0.536445 1.065335,-0.955779 1.768002,-1.258002 0.702668,-0.302223 1.511114,-0.453334 2.425337,-0.453334 0.86889,0 1.628224,0.139778 2.278003,0.419334 0.657335,0.279556 1.246669,0.680001 1.768003,1.201335 z m 5.258683,-2.459337 v 4.306673 h 2.06267 c 0.808445,0 1.492224,0.09822 2.051336,0.294667 0.559112,0.196445 1.012446,0.460889 1.360002,0.793334 0.347556,0.332445 0.59689,0.717779 0.748001,1.156002 0.158667,0.430667 0.238001,0.884001 0.238001,1.360002 0,0.544001 -0.09822,1.046446 -0.294667,1.507336 -0.188889,0.453334 -0.472223,0.846223 -0.850002,1.178668 -0.370223,0.324889 -0.827334,0.578001 -1.371335,0.759335 -0.536445,0.181333 -1.152224,0.272 -1.847336,0.272 H 38.874124 V 29.028355 Z m 0,6.301342 v 3.320672 h 2.085337 c 0.634667,0 1.10689,-0.158667 1.416668,-0.476001 0.317334,-0.317333 0.476001,-0.725334 0.476001,-1.224001 0,-0.211556 -0.03778,-0.415556 -0.113333,-0.612001 -0.068,-0.196445 -0.177557,-0.370223 -0.328668,-0.521334 -0.151111,-0.151111 -0.347556,-0.268223 -0.589334,-0.351334 -0.241778,-0.09067 -0.532667,-0.136001 -0.872668,-0.136001 z"
       id="text5"
       aria-label="кусь"
       sodipodi:nodetypes="csscccccccsscccsccccccscccccscccsccccccccsccccscccscccscccscccscccccscscsccsscccccssscscccscccccscscscsc" />
  </g>
</svg>
