<?xml version="1.0" encoding="UTF-8" standalone="no"?>
<svg
   viewBox="0 0 90 90"
   version="1.1"
   id="svg5"
   xml:space="preserve"
   width="90"
   height="90"
   xmlns:xlink="http://www.w3.org/1999/xlink"
   xmlns="http://www.w3.org/2000/svg"
   xmlns:svg="http://www.w3.org/2000/svg"><defs
     id="defs2"><linearGradient
       x1="88.127731"
       y1="0.082579464"
       x2="88.127731"
       y2="62.08551"
       id="linearGradient54"
       gradientTransform="matrix(-0.68866999,0,0,1.4520743,85.667951,-0.17047095)"
       gradientUnits="userSpaceOnUse"><stop
         stop-color="#1466AC"
         offset="0.40000001"
         id="stop53" /><stop
         stop-color="#EF4058"
         offset="66%"
         id="stop54" /></linearGradient><linearGradient
       x1="0.50006002"
       y1="-8.9999994e-05"
       x2="0.50006002"
       y2="1.0016999"
       id="a"><stop
         stop-color="#1466AC"
         offset="40%"
         id="stop1" /><stop
         stop-color="#EF4058"
         offset="66%"
         id="stop2" /></linearGradient><linearGradient
       x1="88.127731"
       y1="0.082579464"
       x2="88.127731"
       y2="62.08551"
       id="a-4"
       gradientTransform="matrix(-0.68866999,0,0,1.4520743,85.667951,-0.17047095)"
       gradientUnits="userSpaceOnUse"><stop
         stop-color="#1466AC"
         offset="40%"
         id="stop1-7" /><stop
         stop-color="#EF4058"
         offset="66%"
         id="stop2-3" /></linearGradient><linearGradient
       xlink:href="#a"
       id="linearGradient2"
       x1="75.312576"
       y1="0.09013696"
       x2="75.312576"
       y2="67.767441"
       gradientTransform="matrix(0.75169556,0,0,1.3303258,4.9266409,0)"
       gradientUnits="userSpaceOnUse" /><linearGradient
       xlink:href="#linearGradient54"
       id="linearGradient49"
       x1="42.138435"
       y1="-5.4001026"
       x2="41.482075"
       y2="80.899895"
       gradientUnits="userSpaceOnUse" /><linearGradient
       xlink:href="#linearGradient54"
       id="linearGradient57"
       x1="47.557289"
       y1="4.6588655"
       x2="48.185043"
       y2="75.239937"
       gradientUnits="userSpaceOnUse" /></defs><g
     fill="none"
     fill-rule="evenodd"
     id="g5"><path
       d="m 86.501641,56.16 v -0.17 c 0,-0.085 0,-0.213 0.043,-0.298 0.127,-1.573 0.212,-3.486 0.297,-5.697 v -0.17 l 0.085,-4.761 c 0,-1.658 -0.042,-3.274 -0.085,-4.762 v -0.17 l -0.297,-5.696 c 0,-0.086 0,-0.213 -0.043,-0.298 v -0.17 c 0,-0.17 -0.042,-0.298 -0.042,-0.468 v -0.17 c -0.128,-1.658 -0.213,-2.678 -0.255,-2.763 0,-0.17 -0.043,-0.34 -0.043,-0.468 v -0.127 c -0.03618,-0.287049 -0.09299,-0.571117 -0.17,-0.85 0,-0.043 0,-0.086 -0.042,-0.128 -0.722,-3.444 -2.634,-7.227 -5.014,-10.076 -0.934,-1.105 -1.912,-2.083 -2.931,-2.848 -3.83857,-2.830316 -7.824136,-5.455649 -11.94,-7.865 -6.245,-3.699 -11.853,-6.25 -12.575,-6.59 -0.043,0 -0.043,-0.042 -0.043,-0.042 -1.657,-0.723 -3.654,-1.233 -5.82,-1.445 -25.383378,8.6829078 -5.306804,4.1500001 -0.213,5.314 1.317,0.17 2.507,0.425 3.484,0.85 0.085,0.042 0.212,0.085 0.297,0.127 4.149963,1.9308247 8.205257,4.05892 12.152,6.377 3.94775,2.329362 7.776223,4.8552 11.471,7.568 0.807,0.595 1.615,1.445 2.38,2.38 1.911,2.466 3.483,5.825 3.738,8.418 0,0.043 0.128,1.063 0.255,2.806 0,0.127 0,0.212 0.043,0.34 v 0.255 c 0,0.17 0.042,0.298 0.042,0.468 v 0.17 c 0,0.085 0,0.212 0.043,0.297 0,0.213 0.042,0.425 0.042,0.638 0,0.128 0,0.255 0.043,0.383 v 0.085 c 0,0.17 0,0.297 0.042,0.467 v 0.34 c 0.287,5.07 0.287,10.15 0,15.22 v 0.34 c 0,0.17 0,0.298 -0.042,0.468 v 0.085 c 0,0.127 0,0.255 -0.043,0.382 0,0.213 -0.042,0.426 -0.042,0.638 0,0.128 0,0.213 -0.043,0.298 v 0.17 c 0,0.17 -0.042,0.297 -0.042,0.467 v 0.256 c 0,0.127 0,0.255 -0.043,0.34 -0.127,1.743 -0.255,2.805 -0.255,2.805 -0.255,2.594 -1.827,5.952 -3.739,8.418 -0.764,0.978 -1.572,1.786 -2.379,2.38 -0.042,0 -1.147,0.851 -2.974,2.126 -6.475979,4.493316 -13.327746,8.419222 -20.479,11.734 l -0.17,0.085 c -0.085,0.043 -0.212,0.085 -0.297,0.128 -0.977,0.382 -2.167,0.68 -3.484,0.85 -0.595,0.085 -1.232,0.127 -1.87,0.127 h -0.85 c -0.512259,2.170958 -0.483709,2.484603 -0.126,5.272 h 0.594 c 0.383,0 0.765,0 1.147,-0.043 0.425,0 0.85,-0.042 1.275,-0.085 2.167,-0.212 4.206,-0.722 5.82,-1.445 l 0.043,-0.042 c 0.762952,-0.34 6.534761,-2.565431 12.780761,-6.221431 2.993293,-1.772286 5.721832,-4.012564 8.590239,-5.980569 l 3.144,-2.253 c 1.02,-0.765 1.997,-1.743 2.932,-2.848 2.38,-2.849 4.291,-6.632 5.013,-10.076 0,-0.042 0,-0.085 0.043,-0.127 0.042,-0.298 0.127,-0.596 0.17,-0.85 V 59.9 c 0.042,-0.17 0.042,-0.34 0.042,-0.468 0,-0.085 0.128,-1.105 0.255,-2.763 v -0.17 c 0.085,-0.043 0.085,-0.213 0.085,-0.34"
       fill="url(#a)"
       id="path4"
       style="fill:url(#linearGradient2);stroke:none;stroke-width:2.6;stroke-dasharray:none;stroke-opacity:1;paint-order:stroke markers fill" /><path
       d="m 4.0929535,55.989529 v -0.17 c 0,-0.085 0,-0.213 -0.043,-0.298 -0.127,-1.573 -0.212,-3.486 -0.297,-5.697 v -0.17 l -0.085,-4.761 c 0,-1.658 0.042,-3.274 0.085,-4.762 v -0.17 l 0.297,-5.696 c 0,-0.086 0,-0.213 0.043,-0.298 v -0.17 c 0,-0.17 0.042,-0.298 0.042,-0.468 v -0.17 c 0.128,-1.658 0.213,-2.678 0.255,-2.763 0,-0.17 0.043,-0.34 0.043,-0.468 v -0.127 c 0.03618,-0.287049 0.09299,-0.571117 0.17,-0.85 0,-0.043 0,-0.086 0.042,-0.128 0.722,-3.444 2.2654308,-7.186048 4.6454308,-10.035048 0.9339997,-1.105 2.2805687,-2.123952 3.2995697,-2.888952 3.83857,-2.830316 7.824136,-5.455649 11.94,-7.8649999 6.245,-3.699 11.853,-6.25 12.575,-6.59 0.043,0 0.043,-0.042 0.043,-0.042 1.657,-0.72300005 3.654,-1.23300005 5.82,-1.44500005 15.595733,0.0825216 0.85326,4.05785805 0.213,5.31400005 -1.317,0.17 -2.507,0.425 -3.484,0.85 -0.085,0.042 -0.212,0.085 -0.297,0.127 -4.149963,1.930825 -8.205257,4.0589199 -12.152,6.3769999 -3.94775,2.329362 -7.776223,4.8552 -11.471,7.568 -0.807,0.595 -1.615,1.445 -2.38,2.38 -1.911001,2.466 -3.4830005,5.825 -3.7380005,8.418 0,0.043 -0.128,1.063 -0.255,2.806 0,0.127 0,0.212 -0.043,0.34 v 0.255 c 0,0.17 -0.042,0.298 -0.042,0.468 v 0.17 c 0,0.085 0,0.212 -0.043,0.297 0,0.213 -0.042,0.425 -0.042,0.638 0,0.128 0,0.255 -0.043,0.383 v 0.085 c 0,0.17 0,0.297 -0.042,0.467 v 0.34 c -0.287,5.07 -0.287,10.15 0,15.22 v 0.34 c 0,0.17 0,0.298 0.042,0.468 v 0.085 c 0,0.127 0,0.255 0.043,0.382 0,0.213 0.042,0.426 0.042,0.638 0,0.128 0,0.213 0.043,0.298 v 0.17 c 0,0.17 0.042,0.297 0.042,0.467 v 0.256 c 0,0.127 0,0.255 0.043,0.34 0.127,1.743 0.255,2.805 0.255,2.805 0.255,2.594 1.8269995,5.952 3.7390005,8.418 0.764,0.978 1.572,1.786 2.379,2.38 0.042,0 1.147,0.851 2.974,2.126 6.475979,4.493316 13.327746,8.419222 20.479,11.734 l 0.17,0.085 c 0.085,0.043 0.212,0.085 0.297,0.128 0.977,0.382 1.900811,0.802856 3.217811,0.972856 0.595,0.085 1.4999,0.162215 2.136189,0.208905 l 1.116189,0.0819 c 0.512259,2.170958 0.21752,2.197938 -0.140189,4.985335 h -0.594 c -0.383,0 -0.335003,0.225237 -0.717003,0.182237 -0.425,0 -1.320949,0.01943 -1.745949,-0.02357 -1.839383,-0.212 -3.919335,-0.599144 -5.533335,-1.322144 0,0 -1.558229,-0.696186 -1.558229,-0.738186 -0.722,-0.34 -5.060484,-2.155909 -11.306484,-5.811909 -2.993293,-1.772286 -6.131354,-3.7259 -8.999761,-5.693905 l -3.184952,-2.334904 c -1.020001,-0.765 -2.037953,-1.906808 -2.9729524,-3.011808 -2.38,-2.849 -4.0043351,-6.795809 -4.7263351,-10.239809 0,-0.042 0,-0.085 -0.043,-0.127 -0.042,-0.298 -0.127,-0.596 -0.17,-0.85 v -0.129 c -0.042,-0.17 -0.042,-0.34 -0.042,-0.468 0,-0.085 -0.128,-1.105 -0.255,-2.763 v -0.17 c -0.085,-0.043 -0.085,-0.213 -0.085,-0.34"
       fill="url(#a)"
       id="path4-7"
       style="fill:url(#a-4);stroke:none;stroke-width:2.6;stroke-dasharray:none;stroke-opacity:1;paint-order:stroke markers fill" /></g><g
     id="g39"
     transform="matrix(1.1558772,0,0,1.0629522,-5.2634801,-6.216689)"><path
       id="path10"
       style="fill:none;fill-opacity:1;stroke:url(#linearGradient49);stroke-width:3.9;stroke-linecap:round;stroke-dasharray:none;stroke-opacity:1;paint-order:stroke markers fill"
       transform="matrix(-1,0,0,1,86.10334,10.039182)"
       d="m 21.868438,33.744555 c -0.38222,-4.641241 -0.76444,-9.282482 1.146701,-10.538326 1.911142,-1.255845 6.115476,0.873623 10.319895,3.003134 m 30.401086,7.535192 c 0.38222,-4.641241 0.76444,-9.282482 -1.146701,-10.538326 -1.911142,-1.255845 -6.115476,0.873623 -10.319895,3.003134 m -9.575578,22.010598 c -0.328185,3.223938 -0.656364,6.447812 -2.586905,8.040508 -1.93054,1.592696 -5.463288,1.554087 -7.765744,0.859093 -2.302455,-0.694994 -3.374507,-2.046319 -4.446579,-3.39767 m 14.988481,-5.66574 c 0.328185,3.223938 0.656364,6.447812 2.586905,8.040508 1.93054,1.592696 5.463288,1.554087 7.765744,0.859093 2.302455,-0.694994 3.374507,-2.046319 4.446579,-3.39767" /><path
       id="path2-6"
       style="fill:url(#linearGradient57);stroke-width:3.9;stroke-linecap:round;stroke-dasharray:none;paint-order:stroke markers fill"
       transform="translate(-5.0231019,12.168693)"
       d="m 53.145172,45.309265 c 0,1.983108 -2.13918,3.590734 -4.777992,3.590734 -2.638812,0 -4.777992,-1.607626 -4.777992,-3.590734 0,-0.553581 0.166692,-1.077902 0.464414,-1.546164 1.414522,-2.22478 7.212667,-2.22478 8.627174,3e-5 0.29771,0.468253 0.464396,0.992565 0.464396,1.546134 z m 10.58918,-9.399997 a 3.9671814,4.5235486 0 0 1 -3.967182,4.523549 3.9671814,4.5235486 0 0 1 -3.967181,-4.523549 3.9671814,4.5235486 0 0 1 3.967181,-4.523549 3.9671814,4.5235486 0 0 1 3.967182,4.523549 z m -22.498833,-0.03089 a 3.9671814,4.3597398 0 0 1 -3.967182,4.359739 3.9671814,4.3597398 0 0 1 -3.967181,-4.359739 3.9671814,4.3597398 0 0 1 3.967181,-4.35974 3.9671814,4.3597398 0 0 1 3.967182,4.35974 z" /></g></svg>
