<?xml version="1.0" encoding="UTF-8" standalone="no"?>
<svg
   viewBox="0 0 90 90"
   version="1.1"
   id="svg5"
   width="90"
   height="90"
   xmlns="http://www.w3.org/2000/svg"
   xmlns:svg="http://www.w3.org/2000/svg">
  <defs
     id="defs2" />
  <g
     fill="none"
     fill-rule="evenodd"
     id="g5">
    <path
       d="m 72.872,45.829 h -2.72 a 0.183,0.183 0 0 0 -0.17,0.17 v 8.63 c -0.594,0.17 -1.19,0.255 -1.869,0.255 -1.785,0 -2.21,-0.552 -2.21,-2.933 v -5.952 a 0.183,0.183 0 0 0 -0.17,-0.17 h -2.718 a 0.183,0.183 0 0 0 -0.17,0.17 v 6.25 c 0,3.91 1.317,5.399 4.673,5.399 1.912,0 4.079,-0.51 5.354,-0.978 0.042,-0.043 0.084,-0.085 0.084,-0.128 V 46 c 0.085,-0.085 0,-0.17 -0.084,-0.17 z m -57.613,0.043 h -2.762 c -0.085,0 -0.127,0.042 -0.127,0.127 -0.425,1.7 -1.317,4.591 -2.507,7.61 L 7.102,45.957 C 7.059,45.914 7.017,45.872 6.974,45.872 H 4.17 c -0.043,0 -0.085,0.042 -0.128,0.085 C 4,45.999 4,46.042 4.042,46.084 l 4.164,11.394 a 36.97,36.97 0 0 1 -1.19,2.295 c -0.297,0.51 -0.552,1.02 -0.807,1.573 -0.042,0.043 -0.042,0.085 0,0.128 0.043,0.042 0.085,0.085 0.128,0.085 h 3.016 c 0.043,0 0.128,-0.043 0.128,-0.085 a 55.123,55.123 0 0 0 1.742,-3.741 c 1.784,-4.167 3.186,-8.078 4.249,-11.649 0,-0.042 0,-0.085 -0.043,-0.127 -0.085,-0.085 -0.127,-0.085 -0.17,-0.085 z m 9.9,8.757 a 0.091,0.091 0 0 0 -0.085,-0.085 h -0.128 c -0.68,0.255 -1.912,0.425 -2.762,0.425 -1.911,0 -2.804,-0.51 -2.804,-3.4 0,-2.339 0.298,-3.402 2.804,-3.402 0.723,0 1.36,0.085 2.21,0.34 0.085,0 0.127,0 0.17,-0.085 l 1.104,-2.21 v -0.128 a 0.091,0.091 0 0 0 -0.085,-0.085 12.812,12.812 0 0 0 -3.611,-0.553 c -3.951,0 -5.736,1.871 -5.736,6.08 0,4.251 1.785,6.164 5.736,6.164 0.977,0 2.974,-0.212 3.909,-0.595 0.085,-0.043 0.127,-0.128 0.085,-0.213 z m 25.874,-8.757 h -2.761 c -0.085,0 -0.128,0.042 -0.128,0.127 -0.425,1.743 -1.317,4.591 -2.507,7.61 l -2.761,-7.652 c -0.043,-0.043 -0.085,-0.085 -0.128,-0.085 h -2.804 c -0.042,0 -0.085,0.042 -0.127,0.085 -0.043,0.042 -0.043,0.085 0,0.127 l 4.163,11.394 a 36.97,36.97 0 0 1 -1.19,2.295 c -0.297,0.51 -0.552,1.02 -0.807,1.573 -0.042,0.043 -0.042,0.085 0,0.128 0.043,0.042 0.085,0.085 0.128,0.085 h 3.016 c 0.043,0 0.128,-0.043 0.128,-0.085 a 55.123,55.123 0 0 0 1.742,-3.741 c 1.742,-4.167 3.186,-8.078 4.249,-11.649 0,-0.042 0,-0.085 -0.043,-0.127 -0.085,-0.085 -0.127,-0.085 -0.17,-0.085 z M 61.23,45.829 H 53.2 a 0.183,0.183 0 0 0 -0.17,0.17 V 57.18 c 0,0.085 0.085,0.17 0.17,0.17 h 2.72 c 0.084,0 0.17,-0.085 0.17,-0.17 v -8.673 h 4.205 c 0.043,0 0.128,-0.042 0.128,-0.085 0.34,-0.765 0.637,-1.573 0.977,-2.38 v -0.128 c -0.085,-0.042 -0.127,-0.085 -0.17,-0.085 z"
       fill="#EF3E58"
       fill-rule="nonzero"
       id="path2"
       style="fill:#ffffff;fill-opacity:1" />
    <path
       d="m 81.575,56.16 v -0.17 c 0,-0.085 0,-0.213 0.043,-0.298 0.127,-1.573 0.212,-3.486 0.297,-5.697 v -0.17 L 82,45.064 c 0,-1.658 -0.042,-3.274 -0.085,-4.762 v -0.17 l -0.297,-5.696 c 0,-0.086 0,-0.213 -0.043,-0.298 v -0.17 c 0,-0.17 -0.042,-0.298 -0.042,-0.468 v -0.17 c -0.128,-1.658 -0.213,-2.678 -0.255,-2.763 0,-0.17 -0.043,-0.34 -0.043,-0.468 v -0.127 a 6.023,6.023 0 0 0 -0.17,-0.85 c 0,-0.043 0,-0.086 -0.042,-0.128 C 80.301,25.55 78.389,21.767 76.009,18.918 75.075,17.813 74.097,16.835 73.078,16.07 A 135.271,135.271 0 0 0 61.138,8.205 C 54.893,4.506 49.285,1.955 48.563,1.615 48.52,1.615 48.52,1.573 48.52,1.573 46.863,0.85 44.866,0.34 42.7,0.128 42.275,0.085 41.85,0.043 41.425,0.043 41.042,0.043 40.66,0 40.278,0 H 39.683 C 36.751,0.043 34.075,0.595 31.95,1.573 31.61,1.701 25.96,4.293 19.544,8.035 L 19.289,8.162 A 154.73,154.73 0 0 0 7.35,16.07 c -1.614,1.19 -3.059,2.72 -4.376,4.676 -0.297,0.468 -0.297,1.573 0.977,1.573 h 3.272 c 1.402,0 1.742,-0.85 3.314,-1.998 1.742,-1.275 5.183,-3.826 11.471,-7.567 4.546,-2.678 8.795,-4.762 10.834,-5.74 0.043,0 0.085,-0.042 0.128,-0.042 0,0 0.042,0 0.042,-0.042 0,0 0.043,0 0.043,-0.043 0.042,0 0.085,-0.042 0.085,-0.042 0.042,0 0.085,-0.043 0.127,-0.043 0.51,-0.255 0.85,-0.383 0.85,-0.383 1.445,-0.637 3.484,-1.062 5.65,-1.105 h 0.85 c 0.638,0 1.275,0.043 1.87,0.128 1.317,0.17 2.507,0.425 3.484,0.85 0.085,0.042 0.212,0.085 0.297,0.127 a 143.63,143.63 0 0 1 12.152,6.377 137.128,137.128 0 0 1 11.471,7.568 c 0.807,0.595 1.615,1.445 2.38,2.38 1.911,2.466 3.483,5.825 3.738,8.418 0,0.043 0.128,1.063 0.255,2.806 0,0.127 0,0.212 0.043,0.34 v 0.255 c 0,0.17 0.042,0.298 0.042,0.468 v 0.17 c 0,0.085 0,0.212 0.043,0.297 0,0.213 0.042,0.425 0.042,0.638 0,0.128 0,0.255 0.043,0.383 v 0.085 c 0,0.17 0,0.297 0.042,0.467 v 0.34 c 0.287,5.07 0.287,10.15 0,15.22 v 0.34 c 0,0.17 0,0.298 -0.042,0.468 v 0.085 c 0,0.127 0,0.255 -0.043,0.382 0,0.213 -0.042,0.426 -0.042,0.638 0,0.128 0,0.213 -0.043,0.298 v 0.17 c 0,0.17 -0.042,0.297 -0.042,0.467 v 0.256 c 0,0.127 0,0.255 -0.043,0.34 -0.127,1.743 -0.255,2.805 -0.255,2.805 -0.255,2.594 -1.827,5.952 -3.739,8.418 -0.764,0.978 -1.572,1.786 -2.379,2.38 -0.042,0 -1.147,0.851 -2.974,2.126 A 136.965,136.965 0 0 1 46.438,83.538 l -0.17,0.085 c -0.085,0.043 -0.212,0.085 -0.297,0.128 -0.977,0.382 -2.167,0.68 -3.484,0.85 -0.595,0.085 -1.232,0.127 -1.87,0.127 h -0.85 c -2.166,-0.042 -4.205,-0.425 -5.65,-1.105 0,0 -0.297,-0.127 -0.85,-0.383 -0.042,-0.042 -0.127,-0.042 -0.17,-0.085 -0.042,-0.042 -0.085,-0.042 -0.127,-0.085 -0.043,0 -0.043,-0.042 -0.085,-0.042 -0.043,0 -0.085,-0.043 -0.127,-0.043 -0.043,-0.042 -0.085,-0.042 -0.17,-0.085 H 32.545 A 138.21,138.21 0 0 1 21.965,77.289 C 15.635,73.59 12.236,70.997 10.495,69.721 8.922,68.573 8.582,67.723 7.18,67.723 H 3.951 c -1.274,0 -1.274,1.106 -0.977,1.53 1.317,1.957 2.762,3.487 4.376,4.677 0.213,0.17 5.396,3.996 11.94,7.865 0.339,0.213 0.679,0.425 1.061,0.595 6.076,3.486 11.302,5.867 11.6,6.037 2.081,0.935 4.8,1.488 7.69,1.573 h 0.594 c 0.383,0 0.765,0 1.147,-0.043 0.425,0 0.85,-0.042 1.275,-0.085 2.167,-0.212 4.206,-0.722 5.82,-1.445 0,0 0.043,0 0.043,-0.042 0.722,-0.34 6.33,-2.934 12.576,-6.59 a 156.319,156.319 0 0 0 8.795,-5.612 l 3.144,-2.253 c 1.02,-0.765 1.997,-1.743 2.932,-2.848 2.38,-2.849 4.291,-6.632 5.013,-10.076 0,-0.042 0,-0.085 0.043,-0.127 0.042,-0.298 0.127,-0.596 0.17,-0.85 V 59.9 c 0.042,-0.17 0.042,-0.34 0.042,-0.468 0,-0.085 0.128,-1.105 0.255,-2.763 v -0.17 c 0.085,-0.043 0.085,-0.213 0.085,-0.34"
       fill="url(#a)"
       id="path4"
       style="fill:#ffffff;fill-opacity:1;stroke:none;stroke-width:2.6;stroke-dasharray:none;stroke-opacity:1;paint-order:stroke markers fill"
       transform="translate(4)" />
    <path
       d="m 37.65,45.829 h -8.328 c -0.085,0 -0.127,0.043 -0.17,0.128 -0.212,3.783 -0.934,7.822 -1.954,11.138 0,0.042 0,0.085 0.042,0.127 0.043,0.043 0.085,0.043 0.128,0.043 h 2.847 c 0.084,0 0.127,-0.043 0.127,-0.085 0.807,-2.55 1.445,-5.867 1.7,-8.673 h 2.719 v 8.63 c 0,0.085 0.085,0.17 0.17,0.17 h 2.719 c 0.085,0 0.17,-0.085 0.17,-0.17 v -11.18 c 0,-0.043 -0.085,-0.128 -0.17,-0.128 z"
       fill="#EF3E58"
       fill-rule="nonzero"
       id="path5"
       style="fill:#ffffff;fill-opacity:1" />
    <path
       style="font-weight:bold;font-size:22.6667px;font-family:Lato;-inkscape-font-specification:'Lato Bold';fill:#ffffff;fill-opacity:1;stroke-width:2;image-rendering:auto"
       d="m 10.994105,29.765023 c 0.136001,-0.219112 0.321112,-0.396668 0.555335,-0.532668 0.234222,-0.136 0.483556,-0.204 0.748001,-0.204 h 2.19867 l -2.708671,4.318006 c -0.188889,0.302223 -0.381556,0.547779 -0.578001,0.736668 -0.196445,0.181333 -0.434445,0.324889 -0.714001,0.430667 0.377779,0.113334 0.687557,0.283334 0.929335,0.510001 0.241778,0.219111 0.460889,0.498667 0.657334,0.838668 l 2.720004,4.794007 h -1.938003 c -0.491112,0 -0.872668,-0.08311 -1.144668,-0.249334 -0.272001,-0.166222 -0.502446,-0.404222 -0.691335,-0.714001 L 9.3167696,36.474366 C 9.1656583,36.19481 8.9692135,35.987032 8.7274354,35.851032 8.4932128,35.715031 8.2174346,35.647031 7.9001008,35.647031 H 6.8460992 v 5.009341 H 4.0467617 V 29.028355 h 2.7993375 v 4.794007 h 0.906668 c 0.3173339,0 0.5704454,-0.05667 0.7593345,-0.17 0.1964447,-0.120889 0.3626672,-0.302223 0.4986674,-0.544001 z m 9.204311,14.0222 c -0.08311,0.196444 -0.170949,0.401693 -0.306949,0.499915 -0.128445,0.105778 -0.328667,0.158667 -0.600668,0.158667 h -2.126288 l 2.578924,-4.650768 -4.70334,-10.766682 h 2.459337 c 0.219111,0 0.389111,0.05289 0.51,0.158667 0.128445,0.105778 0.222889,0.226667 0.283334,0.362667 l 2.47067,6.029342 c 0.151111,0.415556 0.275778,0.827334 0.374001,1.235335 0.06045,-0.211555 0.124669,-0.419333 0.192667,-0.623334 0.07556,-0.211556 0.154889,-0.419334 0.238,-0.623334 l 2.33467,-6.018009 c 0.06045,-0.151111 0.158669,-0.275778 0.294668,-0.374001 0.143555,-0.09822 0.302222,-0.147333 0.476,-0.147333 h 2.244004 z M 36.278778,31.487692 c -0.08311,0.105778 -0.166222,0.188889 -0.249333,0.249333 -0.07556,0.06045 -0.18889,0.09067 -0.340001,0.09067 -0.143555,0 -0.283333,-0.04156 -0.419334,-0.124667 -0.136,-0.09067 -0.298445,-0.188889 -0.487334,-0.294667 -0.188889,-0.113333 -0.415556,-0.211556 -0.680001,-0.294667 -0.256889,-0.09067 -0.578001,-0.136 -0.963335,-0.136 -0.491111,0 -0.921779,0.09067 -1.292002,0.272 -0.370223,0.173778 -0.680001,0.42689 -0.929334,0.759335 -0.241778,0.332445 -0.423112,0.736667 -0.544001,1.212668 -0.120889,0.468445 -0.181334,1.001113 -0.181334,1.598003 0,0.619556 0.06422,1.171112 0.192667,1.654669 0.136001,0.483556 0.328668,0.891557 0.578001,1.224002 0.249334,0.324889 0.551557,0.574223 0.906668,0.748001 0.355112,0.166222 0.697642,0.227615 1.14342,0.227615 0.445779,0 0.804668,-0.05289 1.076669,-0.158666 0.279555,-0.113334 0.513778,-0.234223 0.702667,-0.362668 0.188889,-0.136 0.351334,-0.256889 0.487334,-0.362667 0.143556,-0.113333 0.303109,-0.187531 0.476001,-0.17 0.356976,0.0362 0.454583,0.108607 0.567916,0.282385 l 0.804668,1.020001 c -0.309779,0.362667 -0.646002,0.668668 -1.008669,0.918002 -0.362667,0.241778 -0.740445,0.438223 -1.133335,0.589334 -0.385333,0.143556 -0.843693,0.223838 -1.25925,0.284283 -0.408001,0.06045 -0.758086,0.112388 -1.166086,0.112388 -0.717779,0 -1.394003,-0.132222 -2.02867,-0.396667 -0.634668,-0.272001 -1.190002,-0.66489 -1.666003,-1.178668 -0.476001,-0.513779 -0.853779,-1.140891 -1.133335,-1.881336 -0.272,-0.748001 -0.408,-1.598003 -0.408,-2.550004 0,-0.853779 0.120889,-1.643336 0.362667,-2.36867 0.249333,-0.73289 0.612001,-1.36378 1.088002,-1.89267 0.476001,-0.536445 1.065335,-0.955779 1.768002,-1.258002 0.702668,-0.302223 1.511114,-0.453334 2.425337,-0.453334 0.86889,0 1.628224,0.139778 2.278003,0.419334 0.657335,0.279556 1.246669,0.680001 1.768003,1.201335 z m 5.258683,-2.459337 v 4.306673 h 2.06267 c 0.808445,0 1.492224,0.09822 2.051336,0.294667 0.559112,0.196445 1.012446,0.460889 1.360002,0.793334 0.347556,0.332445 0.59689,0.717779 0.748001,1.156002 0.158667,0.430667 0.238001,0.884001 0.238001,1.360002 0,0.544001 -0.09822,1.046446 -0.294667,1.507336 -0.188889,0.453334 -0.472223,0.846223 -0.850002,1.178668 -0.370223,0.324889 -0.827334,0.578001 -1.371335,0.759335 -0.536445,0.181333 -1.152224,0.272 -1.847336,0.272 H 38.874124 V 29.028355 Z m 0,6.301342 v 3.320672 h 2.085337 c 0.634667,0 1.10689,-0.158667 1.416668,-0.476001 0.317334,-0.317333 0.476001,-0.725334 0.476001,-1.224001 0,-0.211556 -0.03778,-0.415556 -0.113333,-0.612001 -0.068,-0.196445 -0.177557,-0.370223 -0.328668,-0.521334 -0.151111,-0.151111 -0.347556,-0.268223 -0.589334,-0.351334 -0.241778,-0.09067 -0.532667,-0.136001 -0.872668,-0.136001 z"
       id="text5"
       aria-label="кусь" />
  </g>
</svg>
